<?xml version="1.0" standalone="no"?><!DOCTYPE svg PUBLIC "-//W3C//DTD SVG 1.1//EN" "http://www.w3.org/Graphics/SVG/1.1/DTD/svg11.dtd"><svg t="1611584475438" class="icon" viewBox="0 0 1024 1024" version="1.1" xmlns="http://www.w3.org/2000/svg" p-id="4267" xmlns:xlink="http://www.w3.org/1999/xlink" width="200" height="200"><defs><style type="text/css"></style></defs><path d="M914.87591 262.661941l-239.899947-241.256946A72.974984 72.974984 0 0 0 623.590975 0H160.262079A72.543984 72.543984 0 0 0 87.780095 72.481984v879.035802A72.543984 72.543984 0 0 0 160.262079 1023.99977h703.228842a72.543984 72.543984 0 0 0 72.728984-72.358984V313.73993a72.049984 72.049984 0 0 0-21.343995-51.076989z m-15.667997 688.855845a35.531992 35.531992 0 0 1-35.469992 35.469992h-703.229842a35.531992 35.531992 0 0 1-35.715992-35.469992V72.481984a35.531992 35.531992 0 0 1 35.469992-35.469992h463.329896a35.222992 35.222992 0 0 1 25.166994 10.486997l239.899946 241.256946a35.284992 35.284992 0 0 1 10.548998 24.673995z" p-id="4268"></path><path d="M644.00997 695.455844H270.003054a19.492996 19.492996 0 1 0 0 38.985991h374.252916a19.492996 19.492996 0 1 0 0-38.985991z m0 131.63997H270.003054a19.492996 19.492996 0 0 0 0 38.985991h374.252916a19.492996 19.492996 0 0 0 0-38.985991zM270.003054 602.863865h177.71996a19.492996 19.492996 0 1 0 0-38.985992h-177.71996a19.492996 19.492996 0 1 0 0 38.985992zM660.417967 94.010979a48.609989 48.609989 0 0 0-81.549982 21.095995l-0.431 2.098-6.169999 193.880956a38.245991 38.245991 0 0 0 43.982991 45.21699l196.595955 4.563999h0.74a28.992993 28.992993 0 0 0 8.821998-1.295 48.609989 48.609989 0 0 0 19.923996-80.192982z m156.622964 221.51695a9.560998 9.560998 0 0 1-5.058998 6.167999l-200.172955-4.502999-1.295 0.309v-0.926l6.167998-192.893957a9.622998 9.622998 0 0 1 15.544997-2.529999l181.914959 185.059958a9.375998 9.375998 0 0 1 2.898999 9.315998z" p-id="4269"></path></svg>