<?xml version="1.0" standalone="no"?><!DOCTYPE svg PUBLIC "-//W3C//DTD SVG 1.1//EN" "http://www.w3.org/Graphics/SVG/1.1/DTD/svg11.dtd"><svg t="1608270305059" class="icon" viewBox="0 0 1024 1024" version="1.1" xmlns="http://www.w3.org/2000/svg" p-id="4180" xmlns:xlink="http://www.w3.org/1999/xlink" width="200" height="200"><defs><style type="text/css"></style></defs><path d="M967.68 0H56.32C25.6 0 0 25.6 0 56.32c0 30.72 25.6 56.32 56.32 56.32h10.24l179.2 880.64c5.12 15.36 25.6 30.72 40.96 30.72h445.44c20.48 0 35.84-15.36 40.96-30.72l179.2-880.64h10.24c30.72 0 56.32-25.6 56.32-56.32 5.12-30.72-20.48-56.32-51.2-56.32zM435.2 619.52L409.6 686.08l-112.64-148.48v-5.12L481.28 460.8c5.12 0 5.12 5.12 5.12 5.12L460.8 537.6c25.6 10.24 51.2 15.36 81.92 15.36 61.44-5.12 117.76-25.6 163.84-61.44-46.08 102.4-158.72 158.72-271.36 128z m291.84-266.24c-5.12-5.12-158.72 61.44-189.44 71.68h-5.12l25.6-71.68c-25.6-10.24-56.32-15.36-81.92-15.36-56.32 0-117.76 20.48-163.84 61.44-5.12 0-5.12 0-5.12-5.12 46.08-102.4 163.84-158.72 276.48-133.12 5.12-15.36 20.48-51.2 25.6-61.44 5.12-10.24 5.12 0 5.12 0l112.64 153.6c0-5.12 0-5.12 0 0 0-5.12 0-5.12 0 0z" p-id="4181"></path></svg>