<?xml version="1.0" standalone="no"?><!DOCTYPE svg PUBLIC "-//W3C//DTD SVG 1.1//EN" "http://www.w3.org/Graphics/SVG/1.1/DTD/svg11.dtd"><svg t="1608270561058" class="icon" viewBox="0 0 1024 1024" version="1.1" xmlns="http://www.w3.org/2000/svg" p-id="5679" xmlns:xlink="http://www.w3.org/1999/xlink" width="200" height="200"><defs><style type="text/css"></style></defs><path d="M779.26735564 790.0973798c19.58284099-3.89492971 41.22133932 10.49467169 45.11626901 30.29389767l13.41586897 71.73162197c8.65539933 55.06997826-38.08375706 89.04242064-87.09495578 63.18441512l-233.26301202-119.01174082-230.99096969 120.95920567c-49.22758371 26.07439048-96.07493259-8.00624439-87.31134077-63.18441512l43.16880418-256.84897521L54.26946903 455.78258057c-40.0312219-40.0312219-22.17946079-93.47831279 33.32328744-102.2419046l259.12101753-36.67725468L463.45347248 83.38402428c25.96619799-48.90300623 81.90171619-48.90300623 107.97610668 0.32457748l116.5233135 233.15481953 259.33740252 36.78544716c55.28636324 8.76359182 73.13812436 62.2106827 32.89051746 102.35009711L792.57503211 637.1131966l11.79298158 62.75164517c3.89492971 19.58284099-10.49467169 41.22133932-30.07751267 45.11626902-19.58284099 3.89492971-41.22133932-10.49467169-45.22446151-30.61847514L712.07981832 612.87807846l192.58263515-188.47132046-266.26172196-38.949297-120.95920569-241.81021886-118.79535585 241.81021886-266.36991446 38.949297 192.58263515 188.47132046-45.00807651 264.09787214L517.33333333 752.12181523l238.23986665 125.28690533-6.49154951-42.6278417c-3.57035223-19.4746485 10.71105668-40.78856936 30.18570517-44.68349906z" fill="#8a8a8a" p-id="5680"></path></svg>