<?xml version="1.0" standalone="no"?><!DOCTYPE svg PUBLIC "-//W3C//DTD SVG 1.1//EN" "http://www.w3.org/Graphics/SVG/1.1/DTD/svg11.dtd"><svg t="1610941026358" class="icon" viewBox="0 0 1024 1024" version="1.1" xmlns="http://www.w3.org/2000/svg" p-id="6219" xmlns:xlink="http://www.w3.org/1999/xlink" width="200" height="200"><defs><style type="text/css"></style></defs><path d="M140.571907 191.409231S61.380698 236.212044 19.289797 320.855209c-56.376264 112.358681 16.423385 354.934154 145.520527 418.93978 129.102769 64.016879 283.220396 40.549275 372.370286 72.591473 89.14989 32.036571 113.393934 129.440352 251.088176 88.896703 137.694242-40.549275 323.882198-347.136 186.187956-540.593231C836.751247 167.232703 885.306852 191.409231 756.142193 223.383912S140.571907 191.409231 140.571907 191.409231" fill="#EAF8EE" p-id="6220"></path><path d="M285.951775 1001.494505H128.897182c-5.688264 0-10.740747 5.215648-10.740748 11.252748 0 6.031473 4.979341 11.252747 10.746374 11.252747h157.110857c5.699516 0 10.746374-5.221275 10.746374-11.252747 0-6.037099-5.046857-11.252747-10.808264-11.252748z m385.609143 0H364.507204c-5.688264 0-10.746374 5.215648-10.746374 11.252748 0 6.031473 4.990593 11.252747 10.746374 11.252747h307.053714c5.69389 0 10.746374-5.221275 10.746373-11.252747 0-6.037099-5.052484-11.252747-10.746373-11.252748z m178.541714 0h-92.801407c-5.688264 0-10.740747 5.215648-10.740747 11.252748 0 6.031473 4.979341 11.252747 10.746374 11.252747h92.79578c5.688264 0 10.735121-5.221275 10.735121-11.252747 0-6.037099-5.046857-11.252747-10.735121-11.252748z" fill="#25AE60" p-id="6221"></path><path d="M851.655511 297.635165c-0.281319-15.11244-12.563692-27.293538-27.805538-27.569231h-33.561319v327.612484l-214.038505 212.254945H315.079511v17.700571c0 14.876132 12.867516 27.574857 27.805539 27.574857l300.425846-2.824439 211.900483-214.364836-3.555868-340.378725z" fill="#CCE3D2" p-id="6222"></path><path d="M703.299291 180.831648v500.280264c0 15.005538-12.957538 27.811165-27.985582 27.811165H185.526632c-15.337495-0.281319-27.70989-12.569319-27.985582-27.811165V151.591385C157.54105 136.585846 170.487335 123.78022 185.526632 123.78022h410.061363" fill="#FFFFFF" p-id="6223"></path><path d="M675.966368 725.802198H190.376566a38.259341 38.259341 0 0 1-27.237275-11.275253 38.557538 38.557538 0 0 1-11.224615-27.344176V156.773275C151.914676 135.325538 169.013225 118.153846 190.376566 118.153846h406.601143a10.993934 10.993934 0 0 1 10.712615 10.757627 10.993934 10.993934 0 0 1-10.712615 10.690109H190.376566a17.396747 17.396747 0 0 0-17.104176 17.16044v530.488264c0 9.266637 7.809407 17.166066 17.104176 17.166066h485.651692a17.391121 17.391121 0 0 0 17.09855-17.16044v-501.197363c0-5.710769 4.968088-10.757626 10.712615-10.757626 5.738901 0 10.712615 4.984967 10.712616 10.752v501.135473a38.765714 38.765714 0 0 1-11.331517 27.327296 38.445011 38.445011 0 0 1-27.254154 11.286506z" fill="#25AE60" p-id="6224"></path><path d="M600.415423 821.450549h-302.361318c-15.343121-0.270066-27.70989-12.563692-27.985583-27.811164V264.118857C270.068522 249.113319 283.014808 236.307692 298.054105 236.307692h489.787077c15.09556 0 27.985582 12.867516 27.985582 27.811165v343.270681L600.415423 821.450549z" fill="#FFFFFF" p-id="6225"></path><path d="M601.38316 827.076923h-304.105495a38.281846 38.281846 0 0 1-27.231648-11.269626 38.58567 38.58567 0 0 1-11.230242-27.344176V258.042374C258.815775 236.594637 275.919951 219.428571 297.283291 219.428571h485.707956c21.363341 0 38.46189 17.166066 38.461891 38.613803v348.171252L601.38316 827.076923zM297.277665 240.870681a17.396747 17.396747 0 0 0-17.104176 17.171693v530.482637c0 9.272264 7.809407 17.171692 17.104176 17.171692h295.525275l207.224967-208.035165V258.042374a17.396747 17.396747 0 0 0-17.104176-17.171693H297.283291z" fill="#25AE60" p-id="6226"></path><path d="M584.830368 810.197802L798.947643 597.003253V270.065934H348.522676c-15.247473 0.275692-27.541099 12.513055-27.816791 27.693011V810.197802h264.124483z" fill="#EAF8EE" p-id="6227"></path><path d="M608.393621 815.824176h-21.397099v-128.798945c0-51.695121 42.794198-94.157363 94.888791-94.157363H804.574017v21.233934h-122.688704c-40.656176 0-73.491692 32.58233-73.491692 72.923429V815.824176z m53.518066-410.505846H419.392478c-7.820659 0-14.285363-6.346549-14.285362-14.178462C405.101489 383.324835 411.571819 376.967033 419.392478 376.967033h242.519209c7.820659 0 14.290989 6.357802 14.290989 14.178462 0 7.820659-6.47033 14.172835-14.290989 14.172835z m0-14.178462v7.055473-7.049846z m0 84.93011H419.392478a14.200967 14.200967 0 0 1-14.251604-14.15033 14.195341 14.195341 0 0 1 14.251604-14.139077h242.524835c7.876923 0 14.251604 6.32967 14.251605 14.139077a14.200967 14.200967 0 0 1-14.251605 14.15033z m0-14.178462v7.055473-7.055473z m0 84.986374H419.392478C411.571819 546.883516 405.101489 540.525714 405.101489 532.705055c0-7.820659 6.47033-14.167209 14.290989-14.167209h242.519209c7.820659 0 14.290989 6.346549 14.290989 14.172835 0 7.820659-6.47033 14.178462-14.290989 14.178462z m0-14.178461v7.061098-7.055472z" fill="#25AE60" p-id="6228"></path><path d="M652.082412 0A10.881407 10.881407 0 0 0 641.409182 10.577582v70.307165c0 5.609495 4.951209 10.583209 10.67323 10.583209 5.727648 0 10.678857-4.906198 10.678857-10.577582V10.577582A10.887033 10.887033 0 0 0 652.082412 0z m133.480088 19.692308a11.134593 11.134593 0 0 0-14.921143 2.10989l-41.882725 56.978286a10.898286 10.898286 0 0 0 2.126769 14.786109c1.856703 1.322198 4.079121 2.053626 6.369055 2.109891a10.144352 10.144352 0 0 0 8.495824-4.208528l41.871473-56.983912c3.600879-4.906198 2.891956-11.280879-2.059253-14.791736z m68.833055 81.588044c-2.126769-5.603868-8.495824-7.708132-14.217846-4.906198l-64.590769 29.515956c-5.654505 2.098637-7.781275 8.411429-4.951209 14.082813A10.69011 10.69011 0 0 0 780.549401 146.285714c1.406593 0 2.82444 0 4.242286-0.703296l64.579517-29.51033c5.024352-3.505231 7.145495-9.879912 5.024351-14.791736z" fill="#F5A623" p-id="6229"></path></svg>