<?xml version="1.0" standalone="no"?><!DOCTYPE svg PUBLIC "-//W3C//DTD SVG 1.1//EN" "http://www.w3.org/Graphics/SVG/1.1/DTD/svg11.dtd"><svg t="1610960351147" class="icon" viewBox="0 0 1024 1024" version="1.1" xmlns="http://www.w3.org/2000/svg" p-id="10504" xmlns:xlink="http://www.w3.org/1999/xlink" width="200" height="200"><defs><style type="text/css"></style></defs><path d="M0 477.502514V134.289341C0 9.335905 68.990753 0 136.135423 0h546.282286c104.435544 0 138.034251 35.444791 138.034252 136.188169V205.178922a34.706357 34.706357 0 1 1-68.990753 0V136.188169c0-50.371689-16.772981-68.990753-68.990754-68.990754H136.135423c-55.962683 0-68.990753 7.437077-68.990753 68.990754V820.715687a63.61074 63.61074 0 0 0 68.990753 68.990753h136.188169c41.035784 0 44.780695 68.990753 0 68.990753H110.026537a108.655162 108.655162 0 0 1-104.435543-74.634492A141.990143 141.990143 0 0 1 0 844.872999V477.502514" fill="#24BC29" p-id="10505"></path><path d="M680.835352 1023.99578a341.36709 341.36709 0 1 1 343.213174-339.468262 341.525326 341.525326 0 0 1-343.213174 339.468262z m1.846083-613.637937a273.273006 273.273006 0 1 0 274.275166 276.068503 273.853203 273.853203 0 0 0-274.275166-276.068503z m-68.990753-205.178921a34.653612 34.653612 0 1 1 0 68.990753H203.54382a34.600867 34.600867 0 1 1 0-68.990753zM272.376337 410.357843a34.653612 34.653612 0 1 1 0 68.990753H203.54382a34.600867 34.600867 0 1 1 0-68.990753h68.568791z" fill="#24BC29" p-id="10506"></path><path d="M850.516738 555.829171a40.561077 40.561077 0 0 0-55.962682 0l-171.580214 171.580214-52.217772-52.217771a39.558918 39.558918 0 0 0-55.962683 55.962682l80.225486 80.225486a40.561077 40.561077 0 0 0 55.962683 0l3.744911-3.744911c1.846083 0 1.846083-1.846083 3.74491-3.744911l192.098107-192.098106a40.561077 40.561077 0 0 0-0.052746-55.962683z" fill="#24BC29" p-id="10507"></path></svg>