<?xml version="1.0" standalone="no"?><!DOCTYPE svg PUBLIC "-//W3C//DTD SVG 1.1//EN" "http://www.w3.org/Graphics/SVG/1.1/DTD/svg11.dtd"><svg t="1611028408161" class="icon" viewBox="0 0 1102 1024" version="1.1" xmlns="http://www.w3.org/2000/svg" p-id="2823" xmlns:xlink="http://www.w3.org/1999/xlink" width="215.234375" height="200"><defs><style type="text/css"></style></defs><path d="M86.646154 551.384615L551.384615 86.646154 1016.123077 551.384615 551.384615 1024 86.646154 551.384615z" fill="#FC4916" p-id="2824"></path><path d="M543.507692 94.523077c126.030769-126.030769 338.707692-126.030769 464.738462 0 126.030769 126.030769 126.030769 338.707692 0 464.738461s-338.707692 126.030769-464.738462 0c-126.030769-126.030769-126.030769-338.707692 0-464.738461z" fill="#FC4916" p-id="2825"></path><path d="M0 330.830769c0 181.169231 149.661538 330.830769 330.830769 330.830769s330.830769-149.661538 330.830769-330.830769C653.784615 149.661538 504.123077 0 330.830769 0 149.661538 0 0 149.661538 0 330.830769z" fill="#FC4916" p-id="2826"></path><path d="M960.984615 488.369231c-23.630769 0-39.384615-15.753846-39.384615-39.384616 0-212.676923-141.784615-244.184615-149.661538-244.184615-23.630769 0-39.384615-23.630769-31.507693-47.261538 0-23.630769 23.630769-39.384615 47.261539-31.507693 0 0 212.676923 31.507692 212.676923 322.953846 0 23.630769-23.630769 39.384615-39.384616 39.384616z" fill="#FFFFFF" p-id="2827"></path></svg>