<?xml version="1.0" standalone="no"?><!DOCTYPE svg PUBLIC "-//W3C//DTD SVG 1.1//EN" "http://www.w3.org/Graphics/SVG/1.1/DTD/svg11.dtd"><svg t="1608270487727" class="icon" viewBox="0 0 1024 1024" version="1.1" xmlns="http://www.w3.org/2000/svg" p-id="4938" xmlns:xlink="http://www.w3.org/1999/xlink" width="200" height="200"><defs><style type="text/css"></style></defs><path d="M648.988444 763.392c87.779556-77.027556 157.582222-149.333333 196.437334-208.042667C892.928 483.441778 910.222222 443.733333 910.222222 384.682667 910.222222 266.069333 820.167111 170.666667 711.281778 170.666667c-59.392 0-115.825778 28.899556-154.168889 78.791111l-45.340445 59.050666-45.056-59.278222C429.056 199.68 372.280889 170.666667 312.718222 170.666667 203.832889 170.666667 113.777778 266.069333 113.777778 384.682667c0 59.050667 17.294222 98.759111 64.853333 170.780444 38.684444 58.88 108.373333 131.185778 196.152889 208.042667A2420.565333 2420.565333 0 0 0 512 875.349333c23.893333-17.464889 82.488889-64.170667 136.988444-111.957333zM466.887111 180.110222l13.596445 0.056889c11.377778 10.467556 21.959111 22.072889 31.516444 34.645333a269.653333 269.653333 0 0 1 31.573333-34.474666h13.710223a322.844444 322.844444 0 0 0-5.632-7.168A247.068444 247.068444 0 0 1 711.281778 113.777778C852.423111 113.777778 967.111111 235.406222 967.111111 384.682667c0 88.917333-40.96 151.779556-74.183111 202.012444-96.540444 145.749333-337.863111 327.68-348.216889 335.246222A53.361778 53.361778 0 0 1 512 932.977778a53.361778 53.361778 0 0 1-32.711111-11.036445c-10.353778-7.566222-252.188444-188.984889-348.16-335.246222C97.848889 536.462222 56.888889 473.6 56.888889 384.682667 56.888889 235.406222 171.576889 113.777778 312.718222 113.777778a247.466667 247.466667 0 0 1 159.744 59.335111 331.093333 331.093333 0 0 0-5.575111 6.997333z" p-id="4939"></path></svg>