<?xml version="1.0" standalone="no"?><!DOCTYPE svg PUBLIC "-//W3C//DTD SVG 1.1//EN" "http://www.w3.org/Graphics/SVG/1.1/DTD/svg11.dtd"><svg t="1611368959563" class="icon" viewBox="0 0 1024 1024" version="1.1" xmlns="http://www.w3.org/2000/svg" p-id="2530" xmlns:xlink="http://www.w3.org/1999/xlink" width="200" height="200"><defs><style type="text/css"></style></defs><path d="M511.87386 1023.998538A512.020109 512.020109 0 0 1 312.681803 40.469479a511.946984 511.946984 0 0 1 398.384113 943.310398A508.217618 508.217618 0 0 1 511.87386 1023.998538zM511.87386 74.399403a437.65215 437.65215 0 1 0 309.46431 128.260964A434.800281 434.800281 0 0 0 511.87386 74.399403z m271.293145 474.799567H511.87386A36.708668 36.708668 0 0 1 474.799567 512.124678V240.831532a37.074292 37.074292 0 0 1 74.148585 0v234.145729h234.145728a37.074292 37.074292 0 0 1 0 74.148584l0.073125 0.073125z" fill="#2ECC71" p-id="2531"></path></svg>