<?xml version="1.0" standalone="no"?><!DOCTYPE svg PUBLIC "-//W3C//DTD SVG 1.1//EN" "http://www.w3.org/Graphics/SVG/1.1/DTD/svg11.dtd"><svg t="1610438497422" class="icon" viewBox="0 0 1024 1024" version="1.1" xmlns="http://www.w3.org/2000/svg" p-id="6447" xmlns:xlink="http://www.w3.org/1999/xlink" width="200" height="200"><defs><style type="text/css"></style></defs><path d="M514.792727 0s49.617455 127.953455 375.249455 127.953455v524.427636c0 207.220364-375.249455 371.618909-375.249455 371.618909S139.636364 859.601455 139.636364 652.381091V127.953455C464.104727 127.953455 514.792727 0 514.792727 0zM512 698.274909a46.545455 46.545455 0 1 0 46.452364 46.498909 43.938909 43.938909 0 0 0-46.498909-46.545454zM512 232.727273a45.474909 45.474909 0 0 0-34.164364 17.873454 59.717818 59.717818 0 0 0-12.288 40.634182l18.571637 287.278546c2.466909 15.36 14.196364 26.577455 27.927272 26.577454 13.637818 0 25.367273-11.170909 27.880728-26.577454L558.545455 285.928727C558.498909 256.605091 537.693091 232.727273 512.046545 232.727273z" p-id="6448" fill="#909399"></path></svg>