<?xml version="1.0" standalone="no"?><!DOCTYPE svg PUBLIC "-//W3C//DTD SVG 1.1//EN" "http://www.w3.org/Graphics/SVG/1.1/DTD/svg11.dtd"><svg t="1612528055422" class="icon" viewBox="0 0 1024 1024" version="1.1" xmlns="http://www.w3.org/2000/svg" p-id="4736" xmlns:xlink="http://www.w3.org/1999/xlink" width="200" height="200"><defs><style type="text/css"></style></defs><path d="M879.908571 180.662857a261.997714 261.997714 0 0 0-370.102857 0l-63.341714 63.268572a54.857143 54.857143 0 1 0 77.604571 77.531428l63.268572-63.268571a151.04 151.04 0 0 1 107.52-44.470857c40.594286 0 78.774857 15.798857 107.52 44.470857 59.245714 59.245714 59.245714 155.794286 0 215.04L704.804571 570.733714a152.137143 152.137143 0 0 1-231.862857-20.114285 54.857143 54.857143 0 0 0-89.6 63.414857A260.754286 260.754286 0 0 0 597.284571 724.845714c67.072 0 134.070857-25.453714 185.051429-76.507428L879.908571 550.765714a261.997714 261.997714 0 0 0 0-370.102857" fill="#909399" p-id="4737"></path><path d="M491.593143 783.945143l-46.811429 46.811428a151.113143 151.113143 0 0 1-107.52 44.617143 151.04 151.04 0 0 1-107.52-44.617143 151.04 151.04 0 0 1-44.470857-107.52c0-40.521143 15.798857-78.701714 44.544-107.52l97.499429-97.426285a152.210286 152.210286 0 0 1 231.862857 19.894857 54.784 54.784 0 1 0 89.746286-62.902857 261.997714 261.997714 0 0 0-399.140572-34.523429L152.137143 538.112a259.949714 259.949714 0 0 0-76.653714 185.051429c0 69.997714 27.209143 135.68 76.653714 185.051428a259.730286 259.730286 0 0 0 185.051428 76.8c69.924571 0 135.68-27.282286 185.051429-76.8l46.811429-46.811428a54.857143 54.857143 0 1 0-77.531429-77.531429" fill="#909399" p-id="4738"></path></svg>