<?xml version="1.0" standalone="no"?><!DOCTYPE svg PUBLIC "-//W3C//DTD SVG 1.1//EN" "http://www.w3.org/Graphics/SVG/1.1/DTD/svg11.dtd"><svg t="1610962129013" class="icon" viewBox="0 0 1024 1024" version="1.1" xmlns="http://www.w3.org/2000/svg" p-id="12531" xmlns:xlink="http://www.w3.org/1999/xlink" width="200" height="200"><defs><style type="text/css"></style></defs><path d="M551.272304 709.284772c-65.895341 0.126952-132.045586-25.731371-181.723996-75.535733l-7.981013-7.939029L474.507031 512.868275l7.898044 7.897045c19.445723 19.403739 43.987539 28.702259 68.867229 28.787227 26.070244-0.084968 50.867964-9.469456 70.313687-28.787227l185.035756-185.120725c19.445723-19.488707 28.788227-44.157475 28.874195-69.718909-0.085968-25.390498-9.428472-50.016283-28.788227-69.50499l-7.897045-7.812077c-19.361754-19.404738-44.073507-28.788227-69.547974-28.872195-25.476466 0.083969-50.188219 9.468457-69.547974 28.872195l-76.172494 76.086527c-31.164338 31.208321-81.774398 31.208321-113.024704 0-31.080369-31.122353-31.080369-81.733414 0-112.855767l76.171495-76.172495C596.875238 25.395696 663.450324-0.07977 729.263696 0.006198c65.727404-0.085968 132.218521 25.389499 182.490708 75.660686l7.813077 7.814076c50.18422 50.186219 75.744655 116.592369 75.660686 182.445725 0.083969 65.727404-25.30653 132.346473-75.660686 182.617661L734.441758 633.663071c-50.440124 50.61306-117.270115 75.621701-182.744613 75.621701h-0.424841z" fill="#040000" p-id="12532"></path><path d="M294.141527 1023.992003c-65.981309 0.085968-132.047585-25.729372-181.808964-75.533734l-7.898044-7.940029c-50.356156-50.314171-75.746654-116.934241-75.660687-182.786597-0.085968-65.813371 25.475467-132.177537 75.660687-182.236804l185.122723-185.120724c50.18522-50.272187 116.676338-75.746654 182.573678-75.660687 51.545711 0 103.600231 15.539185 147.843674 46.535586a80.59584 80.59584 0 0 1 20.295405 14.774471l14.351629 14.35063 7.895046 7.812076h-0.083969 0.083969L549.575938 511.126927l-7.897044-7.812077c-19.445723-19.404738-44.073507-28.787227-69.548974-28.872195-25.475467 0.083969-50.186219 9.467457-69.632942 28.872195L217.290286 688.437574c-19.276786 19.403739-28.702259 44.072507-28.787227 69.293069 0.084968 25.643404 9.511441 50.441124 28.787227 69.843863l7.897045 7.897045c19.531691 19.404738 44.072507 28.704258 68.953196 28.787227 26.070244-0.082969 50.950933-9.468457 70.311688-28.787227l79.73916-79.823129c31.250306-31.123353 81.69143-31.123353 112.941735 0.083969 31.164338 31.123353 31.164338 81.650445 0 112.899751l-79.73816 79.824128c-50.526092 50.524093-117.357083 75.533734-182.829582 75.533734h-0.423841z" fill="#040000" p-id="12533"></path></svg>