<?xml version="1.0" standalone="no"?><!DOCTYPE svg PUBLIC "-//W3C//DTD SVG 1.1//EN" "http://www.w3.org/Graphics/SVG/1.1/DTD/svg11.dtd"><svg t="1609361710591" class="icon" viewBox="0 0 1024 1024" version="1.1" xmlns="http://www.w3.org/2000/svg" p-id="3766" xmlns:xlink="http://www.w3.org/1999/xlink" width="200" height="200"><defs><style type="text/css"></style></defs><path d="M389.815 521.042c0 15.917 3.167 31.834 9.258 46.54a121.928 121.928 0 0 0 26.366 39.462 121.955 121.955 0 0 0 39.457 26.362 121.953 121.953 0 0 0 46.544 9.257 121.95 121.95 0 0 0 46.54-9.257 122.02 122.02 0 0 0 39.462-26.362 121.998 121.998 0 0 0 26.363-39.462 121.957 121.957 0 0 0 9.262-46.54 121.95 121.95 0 0 0-9.262-46.544 121.953 121.953 0 0 0-26.363-39.459 121.966 121.966 0 0 0-39.461-26.366 121.972 121.972 0 0 0-46.541-9.257 121.972 121.972 0 0 0-46.544 9.257 121.901 121.901 0 0 0-39.457 26.366 121.86 121.86 0 0 0-26.366 39.459 122.024 122.024 0 0 0-9.258 46.544z m0 0" p-id="3767" fill="#cdcdcd"></path><path d="M949.099 491.655s-0.505-11.583-107.728-111.804c-153.265-132.538-289.88-151.568-391.49-138.993-101.61 12.574-178.074 67.286-184.188 70.688-48.258 26.847-121.66 98.547-146.13 124.038-24.465 25.485-38.402 36.363-46.555 53.015-19.372 39.76 7.137 79.518 7.137 79.518l67.623 67.97s152.25 168.409 352.07 168.409 294.638-85.833 334.737-117.093c40.1-31.266 89.372-88.02 114.524-121.661 17.673-37.724 0-74.087 0-74.087z m-437.66 233.59c-112.78 0-204.207-91.426-204.207-204.203 0-112.782 91.427-204.208 204.208-204.208 112.778 0 204.204 91.426 204.204 204.208 0 112.777-91.426 204.204-204.204 204.204z m0 0" p-id="3768" fill="#cdcdcd"></path></svg>