<?xml version="1.0" standalone="no"?><!DOCTYPE svg PUBLIC "-//W3C//DTD SVG 1.1//EN" "http://www.w3.org/Graphics/SVG/1.1/DTD/svg11.dtd"><svg t="1612240795378" class="icon" viewBox="0 0 1024 1024" version="1.1" xmlns="http://www.w3.org/2000/svg" p-id="3591" xmlns:xlink="http://www.w3.org/1999/xlink" width="200" height="200"><defs><style type="text/css"></style></defs><path d="M649.8 438.3c-6.8 5.6-17 4.5-22.7-2.1-5.6-6.7-4.4-16.6 2.3-22.1l133.9-107c-6.4-2.8-13.6-4.1-20.8-4.1H265.8c-7.1 0-14.1 1.5-20.4 4L379 413.8c6.8 5.5 7.8 15.4 2.2 22.1-5.5 6.6-15.5 7.6-22.4 2.1L220.4 327.5c-5.3 8.2-8.3 17.8-8.3 28.1v294.7c0 9.6 2.6 18.5 7.1 26.3l133.4-119.3c6.5-5.9 16.6-5.5 22.6 1 6 6.4 5.5 16.3-1.1 22.2L242.9 698.1c7 3.3 14.8 5.1 23 5.1h476.7c8.4 0 16.3-1.9 23.4-5.3L634.3 580c-6.4-5.9-7-15.7-0.9-22.1 5.9-6.5 16.1-6.9 22.7-1.1l133.4 119.4c4.5-7.6 7-16.5 7-25.9V355.5c0-10.1-3.1-19.8-8.3-27.8L649.8 438.3z m-45.5 37.4L498 580c-4.5 4.3-10.6 6.9-16.9 6.9s-12.5-2.6-17-6.8l-61.6-60.4c-4.3-4.3-6.9-10.5-6.9-16.6s2.6-12.2 6.9-16.6l16.9-16.5c9-8.9 24.8-8.9 33.8 0l18.6 18.3c5 5 13.5 5 18.5 0l63.2-62.2c9.1-8.8 24.8-8.8 33.8 0l16.8 16.6c4.4 4.3 6.9 10.4 6.9 16.5 0.2 6.1-2.3 12.2-6.7 16.5z" fill="#39A200" p-id="3592"></path><path d="M510.4 62.7c-247.8 0-448.6 200.8-448.6 448.6 0 247.7 200.9 448.6 448.6 448.6S959 759 959 511.2c0-247.7-200.9-448.5-448.6-448.5z m232.2 671.7H265.8c-47.3 0-85.8-37.6-85.8-84.1V355.6c0-46.4 38.5-84.1 85.8-84.1h476.8c47.3 0 85.8 37.7 85.8 84.1v294.7c0 46.4-38.5 84.1-85.8 84.1z" fill="#39A200" p-id="3593"></path></svg>