<?xml version="1.0" standalone="no"?><!DOCTYPE svg PUBLIC "-//W3C//DTD SVG 1.1//EN" "http://www.w3.org/Graphics/SVG/1.1/DTD/svg11.dtd"><svg t="1612240933534" class="icon" viewBox="0 0 1255 1024" version="1.1" xmlns="http://www.w3.org/2000/svg" p-id="7765" xmlns:xlink="http://www.w3.org/1999/xlink" width="245.1171875" height="200"><defs><style type="text/css"></style></defs><path d="M170.908903 0h911.624258c47.170065 0 87.436387 16.68129 120.832 50.010839 33.362581 33.362581 50.076903 73.562839 50.076904 120.666838v682.644646c0 47.104-16.68129 87.33729-50.076904 120.666838C1170.002581 1007.351742 1129.703226 1024 1082.533161 1024H170.908903c-47.170065 0-87.436387-16.68129-120.832-50.010839C16.714323 940.626581 0 900.459355 0 853.322323V170.677677C0 123.540645 16.68129 83.340387 50.076903 50.010839 83.439484 16.648258 123.738839 0 170.908903 0z m968.571871 853.322323V231.985548L662.329806 613.309935a54.371097 54.371097 0 0 1-35.608774 12.453162c-13.642323 0-25.500903-4.129032-35.608774-12.453162L113.96129 231.985548v621.336775c0 15.723355 5.549419 29.134452 16.681291 40.23329 11.131871 11.098839 24.542968 16.68129 40.299354 16.68129h911.591226c15.723355 0 29.134452-5.582452 40.299355-16.68129 11.098839-11.098839 16.648258-24.509935 16.648258-40.23329zM1082.533161 113.763097H170.908903c-5.615484 0-11.825548 1.057032-18.663226 3.138064l474.475355 379.111226L1101.196387 116.934194a64.578065 64.578065 0 0 0-18.663226-3.138065z" fill="#2CC197" p-id="7766"></path></svg>