<?xml version="1.0" standalone="no"?><!DOCTYPE svg PUBLIC "-//W3C//DTD SVG 1.1//EN" "http://www.w3.org/Graphics/SVG/1.1/DTD/svg11.dtd"><svg t="1608270790317" class="icon" viewBox="0 0 1024 1024" version="1.1" xmlns="http://www.w3.org/2000/svg" p-id="2719" xmlns:xlink="http://www.w3.org/1999/xlink" width="200" height="200"><defs><style type="text/css"></style></defs><path d="M687.361937 188.038654l18.48398-36.235272c51.367925 26.222221 96.691179 62.497403 133.427872 106.279558 62.22725 74.204026 99.694583 169.855526 99.694583 274.248108 0 235.817844-191.149505 426.967348-426.967348 426.967348S85.031629 768.149914 85.031629 532.332071c0-105.202017 38.044478-201.508433 101.120049-275.942703 35.503609-41.85834 78.901001-76.783781 127.959324-102.507652l18.868743 36.043914c-44.361347 23.219841-83.32987 54.4491-115.79119 92.76373-58.992579 69.621661-91.492784 158.264537-91.492784 249.641687 0 213.020628 173.282578 386.30423 386.30423 386.30423s386.30423-173.283602 386.30423-386.30423c0-90.64651-32.03767-178.750103-90.183975-248.102634C774.464737 244.104577 733.840504 211.758891 687.361937 188.038654" p-id="2720"></path><path d="M491.667929 64.700581l40.663118 0 0 447.298396-40.663118 0 0-447.298396Z" p-id="2721"></path></svg>