<?xml version="1.0" standalone="no"?><!DOCTYPE svg PUBLIC "-//W3C//DTD SVG 1.1//EN" "http://www.w3.org/Graphics/SVG/1.1/DTD/svg11.dtd"><svg t="1608378589168" class="icon" viewBox="0 0 1024 1024" version="1.1" xmlns="http://www.w3.org/2000/svg" p-id="3487" xmlns:xlink="http://www.w3.org/1999/xlink" width="200" height="200"><defs><style type="text/css"></style></defs><path d="M925.8 480.8c-17.7 0-32 14.3-32 32 0 102.2-39.8 198.3-112 270.5-72.3 72.3-168.3 112-270.5 112-102.2 0-198.3-39.8-270.5-112-72.3-72.3-112-168.3-112-270.5s39.8-198.3 112-270.5c72.3-72.3 168.3-112 270.5-112 84.4 0 164.3 26.9 231.3 77.8 0.1 0.1 0.2 0.1 0.3 0.2l-49.4 17.5c-16.7 5.9-25.4 24.2-19.4 40.9 4.7 13.1 17 21.3 30.2 21.3 3.6 0 7.2-0.6 10.7-1.9l99.1-35.2c13.1-4.6 21.6-17.1 21.3-31L832 97.4c-0.5-17.7-15.1-31.6-32.8-31.1-17.7 0.5-31.6 15.2-31.1 32.8l1.3 49.3c-34.8-24.7-72.8-44.2-113.2-58.1-46.5-16-95.3-24.1-144.9-24.1-60.3 0-118.8 11.8-173.8 35.1-53.3 22.5-101 54.7-142 95.7s-73.2 88.8-95.7 141.9C76.5 394 64.7 452.5 64.7 512.8c0 60.3 11.8 118.8 35.1 173.8 22.5 53.2 54.7 100.9 95.7 141.9s88.8 73.2 141.9 95.7c55.1 23.3 113.6 35.1 173.8 35.1S630 947.5 685 924.2c53.2-22.5 100.9-54.7 141.9-95.7s73.2-88.8 95.7-141.9c23.3-55.1 35.1-113.6 35.1-173.8 0.1-17.7-14.2-32-31.9-32z" p-id="3488" fill="#2ECC71"></path><path d="M314 490.7v191.6c0 35.3 28.7 64 64 64h266c35.3 0 64-28.7 64-64V490.7c0-35.3-28.7-64-64-64H378c-35.4 0-64 28.7-64 64z m330 191.6H378V490.7h266v191.6zM618 426.4v-60.1c0-52.9-43.1-96-96-96h-17c-52.9 0-96 43.1-96 96v60.1h64v-60.1c0-17.6 14.4-32 32-32h17c17.6 0 32 14.4 32 32v60.1h64z" p-id="3489" fill="#2ECC71"></path></svg>