<?xml version="1.0" standalone="no"?><!DOCTYPE svg PUBLIC "-//W3C//DTD SVG 1.1//EN" "http://www.w3.org/Graphics/SVG/1.1/DTD/svg11.dtd"><svg t="1610438164195" class="icon" viewBox="0 0 1160 1024" version="1.1" xmlns="http://www.w3.org/2000/svg" p-id="980" xmlns:xlink="http://www.w3.org/1999/xlink" width="226.5625" height="200"><defs><style type="text/css"></style></defs><path d="M984.35199969 32H168.00000031C92.99199969 32 32 91.20000031 32 164.03199969v528.73600031c0 72.83200031 60.99199969 132.03199969 136.00000031 132.03199969h266.976L576.00000031 992l140.67199969-167.20000031h267.32800031c75.00799969 0 136.00000031-59.20000031 135.99999938-132.03199969V164.03199969C1120.352 91.20000031 1059.36000031 32 984.35199969 32zM288.00000031 480.00000031a64.032 64.032 0 0 1 0-128.00000062 64.032 64.032 0 0 1 0 128.00000062z m288 0a64.032 64.032 0 0 1 0-128.00000062 64.032 64.032 0 0 1 0 128.00000062z m288 0a64.032 64.032 0 0 1 0-128.00000062 64.032 64.032 0 0 1 0 128.00000062z" fill="#909399" p-id="981"></path></svg>