<?xml version="1.0" standalone="no"?><!DOCTYPE svg PUBLIC "-//W3C//DTD SVG 1.1//EN" "http://www.w3.org/Graphics/SVG/1.1/DTD/svg11.dtd"><svg t="1612225432854" class="icon" viewBox="0 0 1170 1024" version="1.1" xmlns="http://www.w3.org/2000/svg" p-id="3233" xmlns:xlink="http://www.w3.org/1999/xlink" width="228.515625" height="200"><defs><style type="text/css"></style></defs><path d="M1144.54 147.749l0.511 11.995v599.771c0 72.85-55.954 132.828-127.56 138.972l-11.996 0.585H890.44a40.521 40.521 0 0 1-40.96-40.229c0-19.456 14.117-36.132 33.646-39.643l7.314-0.585h115.054a58.295 58.295 0 0 0 57.198-51.054l0.585-8.046V159.744a58.587 58.587 0 0 0-50.03-58.514l-7.753-0.512h-865.06a58.295 58.295 0 0 0-57.345 50.98l-0.512 8.046v599.771c0 30.135 21.943 54.638 50.03 58.515l7.826 0.585h468.48c8.777 0 17.408 2.78 24.503 7.972l4.9 4.243 177.811 119.735a39.79 39.79 0 0 1-1.682 56.832 41.399 41.399 0 0 1-51.42 3.73l-5.632-4.754L591.58 898.999H140.434A139.557 139.557 0 0 1 1.39 771.584l-0.585-12.069V159.744c0-72.85 55.88-132.754 127.488-138.971l12.141-0.512h865.134c73.143 0 132.974 56.173 138.971 127.488z" p-id="3234"></path><path d="M289.865 271.799h367.543c31.963 0 47.982 15.726 47.982 47.25 0 31.525-16.019 47.324-47.982 47.324H289.865c-32.036 0-47.982-15.8-47.982-47.25v-0.074c0-31.451 15.946-47.25 47.982-47.25z m0 245.906H852.48c32.037 0 47.982 15.726 47.982 47.177v0.073c0 31.452-15.945 47.25-47.982 47.25H289.865c-32.036 0-47.982-15.725-47.982-47.25 0-31.524 15.946-47.25 47.982-47.25z" p-id="3235"></path></svg>