<?xml version="1.0" standalone="no"?><!DOCTYPE svg PUBLIC "-//W3C//DTD SVG 1.1//EN" "http://www.w3.org/Graphics/SVG/1.1/DTD/svg11.dtd"><svg t="1611584550102" class="icon" viewBox="0 0 1024 1024" version="1.1" xmlns="http://www.w3.org/2000/svg" p-id="6471" xmlns:xlink="http://www.w3.org/1999/xlink" width="200" height="200"><defs><style type="text/css"></style></defs><path d="M767.318471 531.057778a219.591111 219.591111 0 0 0 96.483556-182.328889 218.624 218.624 0 0 0-167.253334-213.333333 4.096 4.096 0 0 0-2.56 0.170666c-1.080889-0.056889-2.161778-0.341333-3.242666-0.341333a37.319111 37.319111 0 0 0-37.091556 37.546667c0 18.716444 13.596444 34.133333 31.288889 36.920888 3.185778 1.308444 7.281778 2.275556 7.452444 2.332445a142.165333 142.165333 0 0 1 95.459556 134.769778 141.880889 141.880889 0 0 1-115.256889 139.946666l-0.227555 0.170667a41.870222 41.870222 0 0 0-39.139556 41.984c0 22.755556 17.806222 41.130667 40.106667 42.040889 0.113778 0.056889 0.284444 0.341333 0.455111 0.341333 131.811556 13.596444 225.28 127.146667 225.28 265.386667 0 20.48 16.384 37.091556 36.579555 37.091555a36.750222 36.750222 0 0 0 36.522667-35.612444l0.113778-0.568889v-0.227555-0.682667a328.874667 328.874667 0 0 0-204.970667-305.607111z m-118.840889-211.854222C648.534471 174.307556 532.481138 56.888889 389.178027 56.888889 245.988693 56.888889 129.878471 174.307556 129.878471 319.146667a262.826667 262.826667 0 0 0 115.2 218.055111A393.671111 393.671111 0 0 0 0.001138 902.883556c0 9.329778 0.568889 18.545778 1.251555 27.704888A36.408889 36.408889 0 0 0 37.434027 967.111111c19.911111 0 36.124444-16.384 36.124444-36.522667 0-1.137778-0.227556-2.275556-0.284444-3.356444a281.372444 281.372444 0 0 1-1.308445-24.348444c0-177.208889 141.994667-320.853333 317.212445-320.853334 175.217778 0 317.269333 143.644444 317.269333 320.853334 0 8.533333-0.625778 16.952889-1.365333 25.315555l-0.113778 1.251556v1.137777a36.408889 36.408889 0 0 0 36.124444 35.441778 36.295111 36.295111 0 0 0 36.010667-35.441778c0.796444-9.159111 1.251556-18.375111 1.251556-27.704888a393.671111 393.671111 0 0 0-245.077334-365.681778A262.769778 262.769778 0 0 0 648.534471 319.203556zM389.178027 507.619556c-102.855111 0-186.254222-84.366222-186.254223-188.416 0-104.106667 83.399111-188.416 186.254223-188.416s186.254222 84.366222 186.254222 188.416c0 104.106667-83.399111 188.416-186.254222 188.416z" fill="#666666" p-id="6472"></path></svg>