<?xml version="1.0" standalone="no"?><!DOCTYPE svg PUBLIC "-//W3C//DTD SVG 1.1//EN" "http://www.w3.org/Graphics/SVG/1.1/DTD/svg11.dtd"><svg t="1609171783086" class="icon" viewBox="0 0 1024 1024" version="1.1" xmlns="http://www.w3.org/2000/svg" p-id="2138" xmlns:xlink="http://www.w3.org/1999/xlink" width="200" height="200"><defs><style type="text/css"></style></defs><path d="M512 0C230.4 0 0 230.4 0 512s230.4 512 512 512 512-230.4 512-512-230.4-512-512-512z m42.666667 810.666667c-8.533333 17.066667-25.6 25.6-42.666667 25.6s-34.133333-8.533333-51.2-17.066667c-8.533333-17.066667-17.066667-34.133333-17.066667-51.2 0-17.066667 8.533333-34.133333 17.066667-42.666667 17.066667-17.066667 34.133333-25.6 51.2-25.6 17.066667 0 34.133333 8.533333 42.666667 17.066667 17.066667 17.066667 17.066667 34.133333 17.066666 51.2 0 17.066667 0 34.133333-17.066666 42.666667zM682.666667 486.4c-8.533333 25.6-17.066667 51.2-59.733334 76.8-17.066667 17.066667-34.133333 8.533333-42.666666 17.066667-8.533333 8.533333-17.066667 8.533333-17.066667 25.6v42.666666H469.333333c-8.533333-17.066667-8.533333-34.133333 0-51.2 0-34.133333 25.6-25.6 68.266667-68.266666 25.6-25.6 34.133333-34.133333 42.666667-51.2V426.666667c0-17.066667-8.533333-17.066667-17.066667-34.133334-17.066667-8.533333-34.133333-8.533333-51.2-8.533333-42.666667 0-85.333333 25.6-128 59.733333V290.133333C426.666667 264.533333 477.866667 256 529.066667 256c51.2 0 93.866667 17.066667 128 42.666667 34.133333 25.6 51.2 68.266667 51.2 110.933333 0 25.6-8.533333 59.733333-25.6 76.8z" p-id="2139"></path></svg>