<?xml version="1.0" standalone="no"?><!DOCTYPE svg PUBLIC "-//W3C//DTD SVG 1.1//EN" "http://www.w3.org/Graphics/SVG/1.1/DTD/svg11.dtd"><svg t="1610109189386" class="icon" viewBox="0 0 1024 1024" version="1.1" xmlns="http://www.w3.org/2000/svg" p-id="3447" xmlns:xlink="http://www.w3.org/1999/xlink" width="200" height="200"><defs><style type="text/css"></style></defs><path d="M515.043556 682.752a175.445333 175.445333 0 0 1-175.388445-175.388444 175.445333 175.445333 0 0 1 175.388445-175.36 175.445333 175.445333 0 0 1 175.36 175.36c-0.597333 96.483556-78.876444 175.388444-175.36 175.388444m356.181333-316.16C801.450667 290.133333 682.524444 199.111111 510.776889 199.111111 336.64 199.111111 217.685333 292.551111 147.911111 370.830222 99.982222 424.846222 56.888889 494.648889 56.888889 511.630222c0 11.52 27.306667 78.279111 91.022222 148.650667 65.536 72.220444 182.044444 157.781333 367.132445 157.781333 137.728 0 257.28-48.554667 347.079111-139.576889C938.581333 600.832 967.111111 521.955556 967.111111 511.630222c0-18.204444-44.288-88.604444-95.857778-145.038222" p-id="3448" fill="#1afa29"></path><path d="M473.173333 511.630222c-23.068444 0-41.870222-18.830222-41.870222-41.870222 0-23.068444 18.801778-41.870222 41.870222-41.870222 23.04 0 41.870222 18.801778 41.870223 41.870222 0 23.04-18.830222 41.870222-41.870223 41.870222" p-id="3449" fill="#1afa29"></path></svg>