<?xml version="1.0" standalone="no"?><!DOCTYPE svg PUBLIC "-//W3C//DTD SVG 1.1//EN" "http://www.w3.org/Graphics/SVG/1.1/DTD/svg11.dtd"><svg t="1612436106072" class="icon" viewBox="0 0 1024 1024" version="1.1" xmlns="http://www.w3.org/2000/svg" p-id="3357" xmlns:xlink="http://www.w3.org/1999/xlink" width="200" height="200"><defs><style type="text/css"></style></defs><path d="M782.743455 943.581152H230.534031c-64.335079 0-117.947644-53.612565-117.947644-117.947644V187.643979c0-64.335079 53.612565-117.947644 117.947644-117.947644H782.743455c64.335079 0 117.947644 53.612565 117.947644 117.947644v632.628272c0 69.696335-53.612565 123.308901-117.947644 123.308901zM230.534031 123.308901c-37.528796 0-64.335079 26.806283-64.335078 64.335078v632.628272c0 37.528796 26.806283 64.335079 64.335078 64.335079H782.743455c37.528796 0 64.335079-26.806283 64.335079-64.335079V187.643979c0-37.528796-26.806283-64.335079-64.335079-64.335078H230.534031z" p-id="3358" fill="#d4237a"></path><path d="M713.04712 316.314136H300.230366c-16.08377 0-26.806283-10.722513-26.806282-26.806283s16.08377-26.806283 26.806282-26.806282h412.816754c16.08377 0 26.806283 10.722513 26.806283 26.806282s-10.722513 26.806283-26.806283 26.806283zM713.04712 509.319372H300.230366c-10.722513 0-26.806283-10.722513-26.806282-26.806283s16.08377-26.806283 26.806282-26.806283h412.816754c16.08377 0 26.806283 10.722513 26.806283 26.806283s-10.722513 26.806283-26.806283 26.806283zM713.04712 707.685864H300.230366c-16.08377 0-26.806283-10.722513-26.806282-26.806283s10.722513-26.806283 26.806282-26.806283h412.816754c16.08377 0 26.806283 10.722513 26.806283 26.806283s-10.722513 26.806283-26.806283 26.806283z" p-id="3359" fill="#d4237a"></path></svg>