<?xml version="1.0" standalone="no"?><!DOCTYPE svg PUBLIC "-//W3C//DTD SVG 1.1//EN" "http://www.w3.org/Graphics/SVG/1.1/DTD/svg11.dtd"><svg t="1608877806858" class="icon" viewBox="0 0 1024 1024" version="1.1" xmlns="http://www.w3.org/2000/svg" p-id="2433" xmlns:xlink="http://www.w3.org/1999/xlink" width="200" height="200"><defs><style type="text/css"></style></defs><path d="M32 96l960 0 0 64-960 0 0-64z" p-id="2434" fill="#ffffff"></path><path d="M32 864l960 0 0 64-960 0 0-64z" p-id="2435" fill="#ffffff"></path><path d="M128 192l64 0 0 64-64 0 0-64z" p-id="2436" fill="#ffffff"></path><path d="M224 192l64 0 0 64-64 0 0-64z" p-id="2437" fill="#ffffff"></path><path d="M320 192l64 0 0 64-64 0 0-64z" p-id="2438" fill="#ffffff"></path><path d="M384 768l-256 0 0-320 256 0 0 320zM192 704l128 0 0-192-128 0 0 192z" p-id="2439" fill="#ffffff"></path><path d="M448 448l224 0 0 64-224 0 0-64z" p-id="2440" fill="#ffffff"></path><path d="M1024 352l-1024 0 0-256 1024 0 0 256zM64 288l896 0 0-128-896 0 0 128z" p-id="2441" fill="#ffffff"></path><path d="M1024 928l-1024 0 0-479.84 64 0 0 415.84 896 0 0-447.264 64 0z" p-id="2442" fill="#ffffff"></path><path d="M448 576l448 0 0 64-448 0 0-64z" p-id="2443" fill="#ffffff"></path><path d="M448 704l448 0 0 64-448 0 0-64z" p-id="2444" fill="#ffffff"></path></svg>