<?xml version="1.0" standalone="no"?><!DOCTYPE svg PUBLIC "-//W3C//DTD SVG 1.1//EN" "http://www.w3.org/Graphics/SVG/1.1/DTD/svg11.dtd"><svg t="1612436011876" class="icon" viewBox="0 0 1335 1024" version="1.1" xmlns="http://www.w3.org/2000/svg" p-id="2269" xmlns:xlink="http://www.w3.org/1999/xlink" width="260.7421875" height="200"><defs><style type="text/css"></style></defs><path d="M1074.042435 841.817043c0 218.468174-812.432696 218.468174-812.432696-3.828869 0-119.318261 114.910609-288.50087 253.061565-353.636174A265.97287 265.97287 0 0 1 400.695652 265.661217c0-146.69913 117.982609-265.661217 263.568696-265.661217 145.541565 0 263.568696 118.917565 263.568695 265.661217a265.97287 265.97287 0 0 1-112.417391 217.622261c139.976348 63.087304 258.582261 219.269565 258.582261 358.533565z m60.416-384.578782C1243.40313 506.212174 1335.652174 627.222261 1335.652174 735.187478c0 62.998261-87.485217 102.578087-197.36487 118.51687 0.890435-4.986435 1.335652-10.061913 1.335653-15.315478 0-138.685217-118.427826-294.199652-258.359653-357.019827a264.548174 264.548174 0 0 0 112.283826-216.687304 264.102957 264.102957 0 0 0-57.789217-165.309217 203.597913 203.597913 0 0 1 81.118609-16.740174c113.218783 0 205.022609 92.16 205.022608 205.913043a205.957565 205.957565 0 0 1-87.440695 168.737392zM188.772174 836.118261c0 6.010435 0.623304 11.887304 1.780869 17.586087C83.923478 836.563478 0 796.538435 0 733.495652c0-92.605217 89.043478-224.122435 196.118261-274.69913A206.714435 206.714435 0 0 1 107.831652 288.946087c0-113.975652 91.447652-206.313739 204.265739-206.313739 26.35687 0 51.556174 5.030957 74.707479 14.246956A265.616696 265.616696 0 0 0 327.234783 265.037913a265.48313 265.48313 0 0 0 113.396869 218.201044c-137.527652 64.957217-251.904 233.828174-251.904 352.834782z" p-id="2270" fill="#409EFF"></path></svg>